<svg width="31" height="31" viewBox="0 0 31 31" fill="#108E45" xmlns="http://www.w3.org/2000/svg">
<path d="M11.9179 21.621C12.5479 22.251 13.625 21.8048 13.625 20.9139V1.5C13.625 0.947715 14.0727 0.5 14.625 0.5L16.375 0.5C16.9273 0.5 17.375 0.947715 17.375 1.5V20.9139C17.375 21.8048 18.4521 22.251 19.0821 21.621L27.1616 13.5415C27.5546 13.1485 28.1926 13.1514 28.5821 13.5478L29.8054 14.7929C30.19 15.1845 30.1872 15.8128 29.7991 16.2009L16.2071 29.7929C15.8166 30.1834 15.1834 30.1834 14.7929 29.7929L1.20088 16.2009C0.812794 15.8128 0.810015 15.1845 1.19465 14.7929L2.41795 13.5478C2.80743 13.1514 3.44542 13.1485 3.83839 13.5415L11.9179 21.621Z" fill="#108E45"/>
</svg>
