<svg id="visual" viewBox="0 0 940 440" width="100%" height="540" xmlns="http://www.w3.org/2000/svg" xmlns:xlink="http://www.w3.org/1999/xlink" version="1.1"><path d="M0 321L22.8 321.2C45.7 321.3 91.3 321.7 137 334C182.7 346.3 228.3 370.7 274 372.3C319.7 374 365.3 353 411.2 343.2C457 333.3 503 334.7 548.8 340.2C594.7 345.7 640.3 355.3 686 364.7C731.7 374 777.3 383 823 384.2C868.7 385.3 914.3 378.7 937.2 375.3L960 372L960 541L937.2 541C914.3 541 868.7 541 823 541C777.3 541 731.7 541 686 541C640.3 541 594.7 541 548.8 541C503 541 457 541 411.2 541C365.3 541 319.7 541 274 541C228.3 541 182.7 541 137 541C91.3 541 45.7 541 22.8 541L0 541Z" fill="#39d353"></path><path d="M0 400L22.8 395.2C45.7 390.3 91.3 380.7 137 385.5C182.7 390.3 228.3 409.7 274 417C319.7 424.3 365.3 419.7 411.2 416.5C457 413.3 503 411.7 548.8 413.5C594.7 415.3 640.3 420.7 686 419.5C731.7 418.3 777.3 410.7 823 400.2C868.7 389.7 914.3 376.3 937.2 369.7L960 363L960 541L937.2 541C914.3 541 868.7 541 823 541C777.3 541 731.7 541 686 541C640.3 541 594.7 541 548.8 541C503 541 457 541 411.2 541C365.3 541 319.7 541 274 541C228.3 541 182.7 541 137 541C91.3 541 45.7 541 22.8 541L0 541Z" fill="#2cc150"></path><path d="M0 445L22.8 445.5C45.7 446 91.3 447 137 443.7C182.7 440.3 228.3 432.7 274 431.2C319.7 429.7 365.3 434.3 411.2 439.2C457 444 503 449 548.8 447C594.7 445 640.3 436 686 427.5C731.7 419 777.3 411 823 412.7C868.7 414.3 914.3 425.7 937.2 431.3L960 437L960 541L937.2 541C914.3 541 868.7 541 823 541C777.3 541 731.7 541 686 541C640.3 541 594.7 541 548.8 541C503 541 457 541 411.2 541C365.3 541 319.7 541 274 541C228.3 541 182.7 541 137 541C91.3 541 45.7 541 22.8 541L0 541Z" fill="#21b04d"></path><path d="M0 460L22.8 461.8C45.7 463.7 91.3 467.3 137 463.3C182.7 459.3 228.3 447.7 274 445.8C319.7 444 365.3 452 411.2 455.8C457 459.7 503 459.3 548.8 462.3C594.7 465.3 640.3 471.7 686 469C731.7 466.3 777.3 454.7 823 456C868.7 457.3 914.3 471.7 937.2 478.8L960 486L960 541L937.2 541C914.3 541 868.7 541 823 541C777.3 541 731.7 541 686 541C640.3 541 594.7 541 548.8 541C503 541 457 541 411.2 541C365.3 541 319.7 541 274 541C228.3 541 182.7 541 137 541C91.3 541 45.7 541 22.8 541L0 541Z" fill="#179f49"></path><path d="M0 516L22.8 511.5C45.7 507 91.3 498 137 497.5C182.7 497 228.3 505 274 505.8C319.7 506.7 365.3 500.3 411.2 499.2C457 498 503 502 548.8 501C594.7 500 640.3 494 686 489C731.7 484 777.3 480 823 484.2C868.7 488.3 914.3 500.7 937.2 506.8L960 513L960 541L937.2 541C914.3 541 868.7 541 823 541C777.3 541 731.7 541 686 541C640.3 541 594.7 541 548.8 541C503 541 457 541 411.2 541C365.3 541 319.7 541 274 541C228.3 541 182.7 541 137 541C91.3 541 45.7 541 22.8 541L0 541Z" fill="#108e45"></path></svg>