<svg width="25" height="25" viewBox="0 0 25 25" fill="none" xmlns="http://www.w3.org/2000/svg">
<rect x="0.5" y="0.5" width="24" height="24" rx="4.5" fill="#108E45"/>
<rect x="0.5" y="0.5" width="24" height="24" rx="4.5" stroke="#108E45"/>
<path d="M8.19905 9.5503V20H5.23697V9.5503H8.19905ZM8.43602 6.66921C8.43602 7.60671 7.65403 8.36128 6.70616 8.36128C5.75829 8.36128 5 7.60671 5 6.66921C5 5.75457 5.75829 5 6.70616 5C7.65403 5 8.43602 5.75457 8.43602 6.66921ZM20 13.5747V20H17.0379V14.6723C17.0379 11.471 13.1043 11.7226 13.1043 14.6723V20H10.1659V9.5503H13.1043V11.2424C14.4787 8.77287 20 8.58994 20 13.5747Z" fill="white"/>
</svg>
