<svg width="100%" height="289" viewBox="0 0 1443 289" fill="none" xmlns="http://www.w3.org/2000/svg">
<path d="M8 286C8 286 150.876 103.19 204 81.949C257.124 60.708 526 14.1866 727.5 1.78529C929 -10.616 1049.34 44.7978 1091.92 69.0615C1134.5 93.3253 1292.52 141.283 1323.5 153.174C1354.48 165.064 1438 286 1438 286H8Z" fill="url(#paint0_linear_590_1119)"/>
<path d="M0.0152476 288.581H1443C1443 288.581 1252.69 144.605 1111.33 92.6468C944.767 31.4263 660.915 29.8636 660.915 29.8636C660.915 29.8636 398.931 24.4649 253.188 92.6468C139.771 145.706 -1.68875 295.282 0.0152476 288.581Z" fill="#F0F0F0"/>
<defs>
<linearGradient id="paint0_linear_590_1119" x1="660.452" y1="-12.1458" x2="663.419" y2="291.525" gradientUnits="userSpaceOnUse">
<stop offset="0.0317057" stop-color="#108E45"/>
<stop offset="1" stop-color="#052E16"/>
</linearGradient>
</defs>
</svg>
