<svg width="25" height="25" viewBox="0 0 25 25" fill="none" xmlns="http://www.w3.org/2000/svg">
<path d="M5 0.5H20C22.4853 0.5 24.5 2.51472 24.5 5V20C24.5 22.4853 22.4853 24.5 20 24.5H5C2.51472 24.5 0.5 22.4853 0.5 20V5C0.5 2.51472 2.51472 0.5 5 0.5Z" fill="#108E45"/>
<path d="M5 0.5H20C22.4853 0.5 24.5 2.51472 24.5 5V20C24.5 22.4853 22.4853 24.5 20 24.5H5C2.51472 24.5 0.5 22.4853 0.5 20V5C0.5 2.51472 2.51472 0.5 5 0.5Z" stroke="#108E45"/>
<path d="M17.0475 5H19.6198C19.7566 5 19.8935 5.04658 19.9482 5.13975C20.0303 5.23292 20.0029 5.34938 19.9482 5.48913L14.3383 13.9441V13.9674L17.8958 19.5342C17.9779 19.6506 17.9779 19.7671 17.9232 19.8602C17.8411 19.9534 17.7316 20 17.5674 20H15.0498C14.6394 20 14.4478 19.7904 14.3383 19.5807C14.3383 19.5807 10.7261 13.9674 10.6988 13.9441C10.8903 13.6879 16.3634 5.41925 16.3634 5.41925C16.5002 5.20963 16.6644 5 17.0475 5ZM8.92005 7.95807C9.30316 7.95807 9.49472 8.1677 9.60418 8.37733C9.60418 8.37733 11.3555 10.9394 11.3555 10.9627C11.2461 11.1025 8.61903 15.0854 8.61903 15.0854C8.48221 15.295 8.31802 15.5047 7.93491 15.5047H5.38995C5.25313 15.5047 5.1163 15.4348 5.06157 15.3649C4.97948 15.2717 4.97948 15.1553 5.06157 15.0155L7.77072 10.9627L6.04672 8.42391C5.96462 8.30745 5.96462 8.19099 6.01935 8.09783C6.07408 8.00466 6.21091 7.95807 6.3751 7.95807H8.92005Z" fill="white"/>
</svg>
